<?xml version="1.0" standalone="no"?>
<!DOCTYPE svg PUBLIC "-//W3C//DTD SVG 20010904//EN"
 "http://www.w3.org/TR/2001/REC-SVG-20010904/DTD/svg10.dtd">
<svg version="1.0" xmlns="http://www.w3.org/2000/svg"
 width="200.000000pt" height="200.000000pt" viewBox="0 0 200.000000 200.000000"
 preserveAspectRatio="xMidYMid meet">
<metadata>
Created by potrace 1.14, written by Peter Selinger 2001-2017
</metadata>
<g transform="translate(0.000000,200.000000) scale(0.100000,-0.100000)"
fill="#000000" stroke="none">
<path d="M300 1900 c-129 -28 -235 -127 -280 -260 -18 -52 -21 -79 -16 -135 6
-85 19 -122 66 -200 20 -33 39 -65 41 -71 2 -5 132 -232 289 -503 195 -337
299 -507 329 -538 25 -26 74 -59 110 -77 59 -28 75 -31 161 -31 86 0 102 3
161 31 88 42 134 92 216 231 37 65 73 125 78 135 6 9 28 47 49 85 22 37 76
132 122 210 45 77 96 165 112 195 17 29 62 107 101 173 39 66 90 158 114 205
40 81 42 89 42 175 0 81 -3 97 -32 158 -39 82 -106 150 -189 192 l-59 30 -690
2 c-379 0 -706 -2 -725 -7z m628 -155 c108 -61 189 -143 249 -252 18 -32 33
-61 33 -66 0 -4 -17 4 -38 17 -84 53 -189 63 -315 31 -180 -46 -322 -187 -401
-398 -14 -37 -25 -69 -26 -72 0 -3 0 -13 0 -22 0 -11 -3 -13 -9 -7 -12 12
-216 363 -253 434 -50 98 -40 199 27 278 69 80 105 87 440 87 l241 -1 52 -29z
m794 5 c88 -41 140 -123 141 -220 0 -53 -15 -99 -60 -175 -10 -17 -63 -108
-118 -202 -91 -158 -103 -174 -150 -201 -86 -51 -231 -89 -325 -86 -8 1 -31 2
-49 2 l-35 2 45 28 c89 57 155 169 185 317 10 46 5 144 -10 208 -27 114 -84
215 -173 304 -31 31 -38 43 -26 45 9 2 132 3 272 2 243 -1 258 -2 303 -24z
m-636 -413 c77 -40 119 -136 93 -215 -27 -85 -93 -134 -179 -134 -128 0 -217
124 -175 246 36 105 162 154 261 103z m-408 -188 c2 -80 59 -184 142 -263 76
-71 159 -116 260 -140 78 -18 249 -15 328 7 28 9 52 14 52 12 0 -14 -260 -448
-284 -473 -50 -54 -101 -76 -176 -76 -75 1 -127 23 -176 76 -17 18 -84 124
-148 236 -85 147 -120 217 -125 250 -14 95 32 284 93 381 15 22 27 41 29 41 1
0 3 -23 5 -51z"/>
</g>
</svg>
